<svg width="50" height="43" viewBox="0 0 50 43" version="1.1" xmlns="http://www.w3.org/2000/svg"><g stroke="none" stroke-width="1" fill="none" fill-rule="evenodd"><path d="M-2-5h53.52v53.52H-2z"/><g transform="translate(.23 .575)" fill-rule="nonzero"><path d="M32.965 33.45c-3.63-9.756-13.04-16.725-24.045-16.725l-2.23 4.46 2.23 4.46c6.843 0 12.739 4.134 15.326 10.035l8.719-2.23z" fill="#34A853"/><circle fill="#FBBC04" cx="32.335" cy="16.725" r="5.018"/><path d="M40.14 8.92H8.92v7.805l-4.46 2.23L0 16.725V3.345A3.344 3.344 0 013.345 0H40.14l2.23 4.46-2.23 4.46z" fill="#EA4335"/><path d="M49.06 33.45l-4.46 2.23-4.46-2.23V0h5.575a3.344 3.344 0 013.345 3.345V33.45z" fill="#FBBC04"/><path d="M49.06 33.45H8.92V16.725H0v22.3a3.344 3.344 0 003.345 3.345h42.37a3.344 3.344 0 003.345-3.345V33.45z" fill="#4285F4"/></g></g></svg>