<svg width="41" height="46" viewBox="0 0 41 46" version="1.1" xmlns="http://www.w3.org/2000/svg" xmlns:xlink="http://www.w3.org/1999/xlink"><defs><path d="M36.795 44.6H3.345A3.344 3.344 0 010 41.255V3.345A3.344 3.344 0 013.345 0h33.45a3.344 3.344 0 013.345 3.345v37.91a3.344 3.344 0 01-3.345 3.345z" id="k"/><path d="M36.795 44.6H3.345A3.344 3.344 0 010 41.255V3.345A3.344 3.344 0 013.345 0h33.45a3.344 3.344 0 013.345 3.345v37.91a3.344 3.344 0 01-3.345 3.345z" id="a"/><path d="M36.795 44.6H3.345A3.344 3.344 0 010 41.255V3.345A3.344 3.344 0 013.345 0h33.45a3.344 3.344 0 013.345 3.345v37.91a3.344 3.344 0 01-3.345 3.345z" id="e"/><path d="M36.795 44.6H3.345A3.344 3.344 0 010 41.255V3.345A3.344 3.344 0 013.345 0h33.45a3.344 3.344 0 013.345 3.345v37.91a3.344 3.344 0 01-3.345 3.345z" id="g"/><path d="M36.795 44.6H3.345A3.344 3.344 0 010 41.255V3.345A3.344 3.344 0 013.345 0h33.45a3.344 3.344 0 013.345 3.345v37.91a3.344 3.344 0 01-3.345 3.345z" id="i"/><path d="M36.795 44.6H3.345A3.344 3.344 0 010 41.255V3.345A3.344 3.344 0 013.345 0h33.45a3.344 3.344 0 013.345 3.345v37.91a3.344 3.344 0 01-3.345 3.345z" id="c"/><path d="M36.795 44.6H3.345A3.344 3.344 0 010 41.255V3.345A3.344 3.344 0 013.345 0h33.45a3.344 3.344 0 013.345 3.345v37.91a3.344 3.344 0 01-3.345 3.345z" id="m"/><path d="M36.795 44.6H3.345A3.344 3.344 0 010 41.255V3.345A3.344 3.344 0 013.345 0h33.45a3.344 3.344 0 013.345 3.345v37.91a3.344 3.344 0 01-3.345 3.345z" id="o"/><path d="M36.795 44.6H3.345A3.344 3.344 0 010 41.255V3.345A3.344 3.344 0 013.345 0h33.45a3.344 3.344 0 013.345 3.345v37.91a3.344 3.344 0 01-3.345 3.345z" id="q"/><path d="M36.795 44.6H3.345A3.344 3.344 0 010 41.255V3.345A3.344 3.344 0 013.345 0h33.45a3.344 3.344 0 013.345 3.345v37.91a3.344 3.344 0 01-3.345 3.345z" id="s"/><radialGradient cx="2.431%" cy="1.583%" fx="2.431%" fy="1.583%" r="138.413%" gradientTransform="matrix(1 0 0 .9 0 .002)" id="u"><stop stop-color="#FFF" stop-opacity=".1" offset="0%"/><stop stop-color="#FFF" stop-opacity="0" offset="100%"/></radialGradient></defs><g stroke="none" stroke-width="1" fill="none" fill-rule="evenodd"><g transform="translate(.69 .46)"><mask id="b" fill="#fff"><use xlink:href="#a"/></mask><path d="M36.795 44.592H3.345A3.344 3.344 0 010 41.247V3.337A3.344 3.344 0 013.345-.008h33.45a3.344 3.344 0 013.345 3.345v37.91a3.346 3.346 0 01-3.345 3.345z" fill="#E0E0E0" fill-rule="nonzero" mask="url(#b)"/></g><g transform="translate(.69 .46)"><mask id="d" fill="#fff"><use xlink:href="#c"/></mask><path d="M36.795-.008H3.345A3.344 3.344 0 000 3.337v.278A3.344 3.344 0 013.345.27h33.45a3.344 3.344 0 013.345 3.345v-.278a3.344 3.344 0 00-3.345-3.345z" fill="#FFF" fill-rule="nonzero" opacity=".4" mask="url(#d)"/></g><g transform="translate(.69 .46)"><mask id="f" fill="#fff"><use xlink:href="#e"/></mask><path d="M36.795 44.313H3.345A3.344 3.344 0 010 40.968v.279a3.344 3.344 0 003.345 3.345h33.45a3.344 3.344 0 003.345-3.345v-.28a3.346 3.346 0 01-3.345 3.346z" fill="#212121" fill-rule="nonzero" opacity=".1" mask="url(#f)"/></g><g transform="translate(.69 .46)"><mask id="h" fill="#fff"><use xlink:href="#g"/></mask><path fill="#4FC3F7" fill-rule="nonzero" mask="url(#h)" d="M4.46 4.46h31.22v31.22H4.46z"/></g><g transform="translate(.69 .46)"><mask id="j" fill="#fff"><use xlink:href="#i"/></mask><path d="M23.802 27.485c-6.157 0-11.15-4.993-11.15-11.15 0-2.03.544-3.93 1.492-5.57a11.215 11.215 0 00-4.09 4.09 11.09 11.09 0 00-1.49 5.569c0 6.158 4.992 11.15 11.15 11.15 2.029 0 3.93-.544 5.569-1.491a11.215 11.215 0 004.089-4.09 11.09 11.09 0 01-5.57 1.492z" fill="#42A5F5" fill-rule="nonzero" mask="url(#j)"/></g><g transform="translate(.69 .46)"><mask id="l" fill="#fff"><use xlink:href="#k"/></mask><path d="M27.892 23.398c-6.158 0-11.15-4.992-11.15-11.15 0-2.029.543-3.93 1.491-5.57a11.215 11.215 0 00-4.09 4.09 11.09 11.09 0 00-1.49 5.57c0 6.157 4.992 11.15 11.15 11.15 2.029 0 3.93-.544 5.569-1.492a11.215 11.215 0 004.09-4.089 11.118 11.118 0 01-5.57 1.491z" fill="#448AFF" fill-rule="nonzero" mask="url(#l)"/></g><g transform="translate(.69 .46)"><mask id="n" fill="#fff"><use xlink:href="#m"/></mask><path d="M19.917 4.46c-.65.663-1.216 1.41-1.684 2.219a11.09 11.09 0 00-1.491 5.57c0 6.157 4.992 11.15 11.15 11.15 2.029 0 3.93-.544 5.57-1.492a11.192 11.192 0 002.218-1.684V4.46H19.917z" fill="#2962FF" fill-rule="nonzero" mask="url(#n)"/></g><g transform="translate(.69 .46)"><mask id="p" fill="#fff"><use xlink:href="#o"/></mask><path d="M27.892 17.6a5.357 5.357 0 01-5.352-5.352c0-2.952 2.4-5.352 5.352-5.352 2.952 0 5.352 2.4 5.352 5.352 0 2.952-2.4 5.352-5.352 5.352zm0-8.474a3.124 3.124 0 00-3.122 3.122 3.124 3.124 0 003.122 3.122 3.124 3.124 0 003.122-3.122c0-1.722-1.4-3.122-3.122-3.122z" fill="#F5F5F5" fill-rule="nonzero" mask="url(#p)"/></g><g transform="translate(.69 .46)"><mask id="r" fill="#fff"><use xlink:href="#q"/></mask><path fill="#212121" fill-rule="nonzero" opacity=".1" mask="url(#r)" d="M4.46 4.181h31.22v.279H4.46z"/></g><g transform="translate(.69 .46)"><mask id="t" fill="#fff"><use xlink:href="#s"/></mask><path fill="#FFF" fill-rule="nonzero" opacity=".4" mask="url(#t)" d="M4.46 35.688h31.22v.28H4.46z"/></g><path d="M43.485 49.06h-33.45a3.344 3.344 0 01-3.345-3.345V7.805a3.344 3.344 0 013.345-3.345h33.45a3.344 3.344 0 013.345 3.345v37.91a3.344 3.344 0 01-3.345 3.345z" fill="url(#u)" fill-rule="nonzero" transform="translate(-6 -4)"/><path d="M-6-4h53.52v53.52H-6z"/></g></svg>