<?xml version="1.0" encoding="UTF-8"?>
<svg width="80px" height="58px" viewBox="0 0 80 58" version="1.1" xmlns="http://www.w3.org/2000/svg" xmlns:xlink="http://www.w3.org/1999/xlink">
    <title>Group 4</title>
    <defs>
        <rect id="path-1" x="0.594226246" y="0" width="79" height="58" rx="11"></rect>
        <polygon id="path-3" points="0.144415962 0.0914760026 71.9269868 0.0914760026 71.9269868 39.0960011 0.144415962 39.0960011"></polygon>
        <path d="M51.7110495,3.15964809 C52.5482655,3.99664811 53.6295615,4.43923212 54.7257615,4.48956013 L54.7257615,4.48956013 C53.2956255,5.81061616 52.3873455,7.68895222 52.3579695,9.77097628 L52.3579695,9.77097628 C52.3568895,9.84657628 52.3575375,9.92217628 52.3588335,9.99756028 L52.3588335,9.99756028 L52.3575375,9.99756028 L52.3575375,19.5203525 C52.3575375,21.9864246 50.3580254,23.9855047 47.8919533,23.9855047 L47.8919533,23.9855047 C46.1533693,23.9855047 44.6575693,22.9962246 43.9199292,21.5457846 L43.9199292,21.5457846 L39.9932651,13.7116804 C39.4221611,12.5718484 38.2561931,11.8521363 36.981145,11.8521363 L36.981145,11.8521363 L11.4529683,11.8521363 C10.1738163,11.8521363 9.00504025,12.5766004 8.43588024,13.7218324 L8.43588024,13.7218324 L0.496368014,29.6978408 C-0.147528004,30.9938409 0.108000003,32.5563849 1.13119203,33.5797929 L1.13119203,33.5797929 L6.64761619,39.0960011 L13.6574644,39.0960011 C17.9681765,39.0960011 20.8656006,35.495929 20.7915126,31.7936889 L20.7915126,31.7936889 L28.0454408,39.0960011 L56.2016896,39.0960011 C58.0309936,39.0960011 59.5138337,37.6131611 59.5138337,35.784073 L59.5138337,35.784073 C59.5138337,33.954769 58.0309936,32.4719289 56.2016896,32.4719289 L56.2016896,32.4719289 L50.6507054,32.4719289 C56.4379936,31.2085449 60.7716017,26.0554327 60.7716017,19.8892806 L60.7716017,19.8892806 L62.0544257,18.8462165 C62.6901138,18.3291125 63.0592578,17.5532405 63.0592578,16.7337365 L63.0592578,16.7337365 L63.0592578,15.0774484 C63.0592578,13.4336884 64.3917618,12.1007523 66.0357379,12.1007523 L66.0357379,12.1007523 L70.51061,12.1007523 C71.292746,12.1007523 71.926922,11.4667923 71.926922,10.6844403 L71.926922,10.6844403 L71.926922,8.13693623 C71.926922,6.55970418 70.648202,5.28098415 69.0707539,5.28098415 L69.0707539,5.28098415 L67.7371699,5.28098415 C66.4422499,5.28098415 65.1898818,4.84164014 64.1630178,4.05259211 L64.1630178,4.05259211 C62.9119458,3.09139209 61.3424897,2.52417607 59.6399777,2.53670407 L59.6399777,2.53670407 C57.7752496,2.55096007 56.0686336,3.27110409 54.7767375,4.44225613 L54.7767375,4.44225613 C54.7272735,3.34497609 54.2846895,2.26216806 53.4468255,1.42430404 L53.4468255,1.42430404 C52.5960015,0.573264016 51.4928894,0.129384004 50.3783294,0.0913680026 L50.3783294,0.0913680026 C50.4163454,1.20571203 50.8604414,2.30882406 51.7110495,3.15964809" id="path-5"></path>
        <path d="M51.7110495,3.15964809 C52.5482655,3.99664811 53.6295615,4.43923212 54.7257615,4.48956013 L54.7257615,4.48956013 C53.2956255,5.81061616 52.3873455,7.68895222 52.3579695,9.77097628 L52.3579695,9.77097628 C52.3568895,9.84657628 52.3575375,9.92217628 52.3588335,9.99756028 L52.3588335,9.99756028 L52.3575375,9.99756028 L52.3575375,19.5203525 C52.3575375,21.9864246 50.3580254,23.9855047 47.8919533,23.9855047 L47.8919533,23.9855047 C46.1533693,23.9855047 44.6575693,22.9962246 43.9199292,21.5457846 L43.9199292,21.5457846 L39.9932651,13.7116804 C39.4221611,12.5718484 38.2561931,11.8521363 36.981145,11.8521363 L36.981145,11.8521363 L11.4529683,11.8521363 C10.1738163,11.8521363 9.00504025,12.5766004 8.43588024,13.7218324 L8.43588024,13.7218324 L0.496368014,29.6978408 C-0.147528004,30.9938409 0.108000003,32.5563849 1.13119203,33.5797929 L1.13119203,33.5797929 L6.64761619,39.0960011 L13.6574644,39.0960011 C17.9681765,39.0960011 20.8656006,35.495929 20.7915126,31.7936889 L20.7915126,31.7936889 L28.0454408,39.0960011 L56.2016896,39.0960011 C58.0309936,39.0960011 59.5138337,37.6131611 59.5138337,35.784073 L59.5138337,35.784073 C59.5138337,33.954769 58.0309936,32.4719289 56.2016896,32.4719289 L56.2016896,32.4719289 L50.6507054,32.4719289 C56.4379936,31.2085449 60.7716017,26.0554327 60.7716017,19.8892806 L60.7716017,19.8892806 L62.0544257,18.8462165 C62.6901138,18.3291125 63.0592578,17.5532405 63.0592578,16.7337365 L63.0592578,16.7337365 L63.0592578,15.0774484 C63.0592578,13.4336884 64.3917618,12.1007523 66.0357379,12.1007523 L66.0357379,12.1007523 L70.51061,12.1007523 C71.292746,12.1007523 71.926922,11.4667923 71.926922,10.6844403 L71.926922,10.6844403 L71.926922,8.13693623 C71.926922,6.55970418 70.648202,5.28098415 69.0707539,5.28098415 L69.0707539,5.28098415 L67.7371699,5.28098415 C66.4422499,5.28098415 65.1898818,4.84164014 64.1630178,4.05259211 L64.1630178,4.05259211 C62.9119458,3.09139209 61.3424897,2.52417607 59.6399777,2.53670407 L59.6399777,2.53670407 C57.7752496,2.55096007 56.0686336,3.27110409 54.7767375,4.44225613 L54.7767375,4.44225613 C54.7272735,3.34497609 54.2846895,2.26216806 53.4468255,1.42430404 L53.4468255,1.42430404 C52.5960015,0.573264016 51.4928894,0.129384004 50.3783294,0.0913680026 L50.3783294,0.0913680026 C50.4163454,1.20571203 50.8604414,2.30882406 51.7110495,3.15964809" id="path-7"></path>
        <path d="M51.7110495,3.15964809 C52.5482655,3.99664811 53.6295615,4.43923212 54.7257615,4.48956013 L54.7257615,4.48956013 C53.2956255,5.81061616 52.3873455,7.68895222 52.3579695,9.77097628 L52.3579695,9.77097628 C52.3568895,9.84657628 52.3575375,9.92217628 52.3588335,9.99756028 L52.3588335,9.99756028 L52.3575375,9.99756028 L52.3575375,19.5203525 C52.3575375,21.9864246 50.3580254,23.9855047 47.8919533,23.9855047 L47.8919533,23.9855047 C46.1533693,23.9855047 44.6575693,22.9962246 43.9199292,21.5457846 L43.9199292,21.5457846 L39.9932651,13.7116804 C39.4221611,12.5718484 38.2561931,11.8521363 36.981145,11.8521363 L36.981145,11.8521363 L11.4529683,11.8521363 C10.1738163,11.8521363 9.00504025,12.5766004 8.43588024,13.7218324 L8.43588024,13.7218324 L0.496368014,29.6978408 C-0.147528004,30.9938409 0.108000003,32.5563849 1.13119203,33.5797929 L1.13119203,33.5797929 L6.64761619,39.0960011 L13.6574644,39.0960011 C17.9681765,39.0960011 20.8656006,35.495929 20.7915126,31.7936889 L20.7915126,31.7936889 L28.0454408,39.0960011 L56.2016896,39.0960011 C58.0309936,39.0960011 59.5138337,37.6131611 59.5138337,35.784073 L59.5138337,35.784073 C59.5138337,33.954769 58.0309936,32.4719289 56.2016896,32.4719289 L56.2016896,32.4719289 L50.6507054,32.4719289 C56.4379936,31.2085449 60.7716017,26.0554327 60.7716017,19.8892806 L60.7716017,19.8892806 L62.0544257,18.8462165 C62.6901138,18.3291125 63.0592578,17.5532405 63.0592578,16.7337365 L63.0592578,16.7337365 L63.0592578,15.0774484 C63.0592578,13.4336884 64.3917618,12.1007523 66.0357379,12.1007523 L66.0357379,12.1007523 L70.51061,12.1007523 C71.292746,12.1007523 71.926922,11.4667923 71.926922,10.6844403 L71.926922,10.6844403 L71.926922,8.13693623 C71.926922,6.55970418 70.648202,5.28098415 69.0707539,5.28098415 L69.0707539,5.28098415 L67.7371699,5.28098415 C66.4422499,5.28098415 65.1898818,4.84164014 64.1630178,4.05259211 L64.1630178,4.05259211 C62.9119458,3.09139209 61.3424897,2.52417607 59.6399777,2.53670407 L59.6399777,2.53670407 C57.7752496,2.55096007 56.0686336,3.27110409 54.7767375,4.44225613 L54.7767375,4.44225613 C54.7272735,3.34497609 54.2846895,2.26216806 53.4468255,1.42430404 L53.4468255,1.42430404 C52.5960015,0.573264016 51.4928894,0.129384004 50.3783294,0.0913680026 L50.3783294,0.0913680026 C50.4163454,1.20571203 50.8604414,2.30882406 51.7110495,3.15964809" id="path-9"></path>
        <path d="M51.7110495,3.15964809 C52.5482655,3.99664811 53.6295615,4.43923212 54.7257615,4.48956013 L54.7257615,4.48956013 C53.2956255,5.81061616 52.3873455,7.68895222 52.3579695,9.77097628 L52.3579695,9.77097628 C52.3568895,9.84657628 52.3575375,9.92217628 52.3588335,9.99756028 L52.3588335,9.99756028 L52.3575375,9.99756028 L52.3575375,19.5203525 C52.3575375,21.9864246 50.3580254,23.9855047 47.8919533,23.9855047 L47.8919533,23.9855047 C46.1533693,23.9855047 44.6575693,22.9962246 43.9199292,21.5457846 L43.9199292,21.5457846 L39.9932651,13.7116804 C39.4221611,12.5718484 38.2561931,11.8521363 36.981145,11.8521363 L36.981145,11.8521363 L11.4529683,11.8521363 C10.1738163,11.8521363 9.00504025,12.5766004 8.43588024,13.7218324 L8.43588024,13.7218324 L0.496368014,29.6978408 C-0.147528004,30.9938409 0.108000003,32.5563849 1.13119203,33.5797929 L1.13119203,33.5797929 L6.64761619,39.0960011 L13.6574644,39.0960011 C17.9681765,39.0960011 20.8656006,35.495929 20.7915126,31.7936889 L20.7915126,31.7936889 L28.0454408,39.0960011 L56.2016896,39.0960011 C58.0309936,39.0960011 59.5138337,37.6131611 59.5138337,35.784073 L59.5138337,35.784073 C59.5138337,33.954769 58.0309936,32.4719289 56.2016896,32.4719289 L56.2016896,32.4719289 L50.6507054,32.4719289 C56.4379936,31.2085449 60.7716017,26.0554327 60.7716017,19.8892806 L60.7716017,19.8892806 L62.0544257,18.8462165 C62.6901138,18.3291125 63.0592578,17.5532405 63.0592578,16.7337365 L63.0592578,16.7337365 L63.0592578,15.0774484 C63.0592578,13.4336884 64.3917618,12.1007523 66.0357379,12.1007523 L66.0357379,12.1007523 L70.51061,12.1007523 C71.292746,12.1007523 71.926922,11.4667923 71.926922,10.6844403 L71.926922,10.6844403 L71.926922,8.13693623 C71.926922,6.55970418 70.648202,5.28098415 69.0707539,5.28098415 L69.0707539,5.28098415 L67.7371699,5.28098415 C66.4422499,5.28098415 65.1898818,4.84164014 64.1630178,4.05259211 L64.1630178,4.05259211 C62.9119458,3.09139209 61.3424897,2.52417607 59.6399777,2.53670407 L59.6399777,2.53670407 C57.7752496,2.55096007 56.0686336,3.27110409 54.7767375,4.44225613 L54.7767375,4.44225613 C54.7272735,3.34497609 54.2846895,2.26216806 53.4468255,1.42430404 L53.4468255,1.42430404 C52.5960015,0.573264016 51.4928894,0.129384004 50.3783294,0.0913680026 L50.3783294,0.0913680026 C50.4163454,1.20571203 50.8604414,2.30882406 51.7110495,3.15964809 L51.7110495,3.15964809 Z" id="path-11"></path>
        <path d="M51.7110495,3.15964809 C52.5482655,3.99664811 53.6295615,4.43923212 54.7257615,4.48956013 L54.7257615,4.48956013 C53.2956255,5.81061616 52.3873455,7.68895222 52.3579695,9.77097628 L52.3579695,9.77097628 C52.3568895,9.84657628 52.3575375,9.92217628 52.3588335,9.99756028 L52.3588335,9.99756028 L52.3575375,9.99756028 L52.3575375,19.5203525 C52.3575375,21.9864246 50.3580254,23.9855047 47.8919533,23.9855047 L47.8919533,23.9855047 C46.1533693,23.9855047 44.6575693,22.9962246 43.9199292,21.5457846 L43.9199292,21.5457846 L39.9932651,13.7116804 C39.4221611,12.5718484 38.2561931,11.8521363 36.981145,11.8521363 L36.981145,11.8521363 L11.4529683,11.8521363 C10.1738163,11.8521363 9.00504025,12.5766004 8.43588024,13.7218324 L8.43588024,13.7218324 L0.496368014,29.6978408 C-0.147528004,30.9938409 0.108000003,32.5563849 1.13119203,33.5797929 L1.13119203,33.5797929 L6.64761619,39.0960011 L13.6574644,39.0960011 C17.9681765,39.0960011 20.8656006,35.495929 20.7915126,31.7936889 L20.7915126,31.7936889 L28.0454408,39.0960011 L56.2016896,39.0960011 C58.0309936,39.0960011 59.5138337,37.6131611 59.5138337,35.784073 L59.5138337,35.784073 C59.5138337,33.954769 58.0309936,32.4719289 56.2016896,32.4719289 L56.2016896,32.4719289 L50.6507054,32.4719289 C56.4379936,31.2085449 60.7716017,26.0554327 60.7716017,19.8892806 L60.7716017,19.8892806 L62.0544257,18.8462165 C62.6901138,18.3291125 63.0592578,17.5532405 63.0592578,16.7337365 L63.0592578,16.7337365 L63.0592578,15.0774484 C63.0592578,13.4336884 64.3917618,12.1007523 66.0357379,12.1007523 L66.0357379,12.1007523 L70.51061,12.1007523 C71.292746,12.1007523 71.926922,11.4667923 71.926922,10.6844403 L71.926922,10.6844403 L71.926922,8.13693623 C71.926922,6.55970418 70.648202,5.28098415 69.0707539,5.28098415 L69.0707539,5.28098415 L67.7371699,5.28098415 C66.4422499,5.28098415 65.1898818,4.84164014 64.1630178,4.05259211 L64.1630178,4.05259211 C62.9119458,3.09139209 61.3424897,2.52417607 59.6399777,2.53670407 L59.6399777,2.53670407 C57.7752496,2.55096007 56.0686336,3.27110409 54.7767375,4.44225613 L54.7767375,4.44225613 C54.7272735,3.34497609 54.2846895,2.26216806 53.4468255,1.42430404 L53.4468255,1.42430404 C52.5960015,0.573264016 51.4928894,0.129384004 50.3783294,0.0913680026 L50.3783294,0.0913680026 C50.4163454,1.20571203 50.8604414,2.30882406 51.7110495,3.15964809" id="path-13"></path>
        <path d="M51.7110495,3.15964809 C52.5482655,3.99664811 53.6295615,4.43923212 54.7257615,4.48956013 L54.7257615,4.48956013 C53.2956255,5.81061616 52.3873455,7.68895222 52.3579695,9.77097628 L52.3579695,9.77097628 C52.3568895,9.84657628 52.3575375,9.92217628 52.3588335,9.99756028 L52.3588335,9.99756028 L52.3575375,9.99756028 L52.3575375,19.5203525 C52.3575375,21.9864246 50.3580254,23.9855047 47.8919533,23.9855047 L47.8919533,23.9855047 C46.1533693,23.9855047 44.6575693,22.9962246 43.9199292,21.5457846 L43.9199292,21.5457846 L39.9932651,13.7116804 C39.4221611,12.5718484 38.2561931,11.8521363 36.981145,11.8521363 L36.981145,11.8521363 L11.4529683,11.8521363 C10.1738163,11.8521363 9.00504025,12.5766004 8.43588024,13.7218324 L8.43588024,13.7218324 L0.496368014,29.6978408 C-0.147528004,30.9938409 0.108000003,32.5563849 1.13119203,33.5797929 L1.13119203,33.5797929 L6.64761619,39.0960011 L13.6574644,39.0960011 C17.9681765,39.0960011 20.8656006,35.495929 20.7915126,31.7936889 L20.7915126,31.7936889 L28.0454408,39.0960011 L56.2016896,39.0960011 C58.0309936,39.0960011 59.5138337,37.6131611 59.5138337,35.784073 L59.5138337,35.784073 C59.5138337,33.954769 58.0309936,32.4719289 56.2016896,32.4719289 L56.2016896,32.4719289 L50.6507054,32.4719289 C56.4379936,31.2085449 60.7716017,26.0554327 60.7716017,19.8892806 L60.7716017,19.8892806 L62.0544257,18.8462165 C62.6901138,18.3291125 63.0592578,17.5532405 63.0592578,16.7337365 L63.0592578,16.7337365 L63.0592578,15.0774484 C63.0592578,13.4336884 64.3917618,12.1007523 66.0357379,12.1007523 L66.0357379,12.1007523 L70.51061,12.1007523 C71.292746,12.1007523 71.926922,11.4667923 71.926922,10.6844403 L71.926922,10.6844403 L71.926922,8.13693623 C71.926922,6.55970418 70.648202,5.28098415 69.0707539,5.28098415 L69.0707539,5.28098415 L67.7371699,5.28098415 C66.4422499,5.28098415 65.1898818,4.84164014 64.1630178,4.05259211 L64.1630178,4.05259211 C62.9119458,3.09139209 61.3424897,2.52417607 59.6399777,2.53670407 L59.6399777,2.53670407 C57.7752496,2.55096007 56.0686336,3.27110409 54.7767375,4.44225613 L54.7767375,4.44225613 C54.7272735,3.34497609 54.2846895,2.26216806 53.4468255,1.42430404 L53.4468255,1.42430404 C52.5960015,0.573264016 51.4928894,0.129384004 50.3783294,0.0913680026 L50.3783294,0.0913680026 C50.4163454,1.20571203 50.8604414,2.30882406 51.7110495,3.15964809" id="path-15"></path>
        <path d="M51.7110495,3.15964809 C52.5482655,3.99664811 53.6295615,4.43923212 54.7257615,4.48956013 L54.7257615,4.48956013 C53.2956255,5.81061616 52.3873455,7.68895222 52.3579695,9.77097628 L52.3579695,9.77097628 C52.3568895,9.84657628 52.3575375,9.92217628 52.3588335,9.99756028 L52.3588335,9.99756028 L52.3575375,9.99756028 L52.3575375,19.5203525 C52.3575375,21.9864246 50.3580254,23.9855047 47.8919533,23.9855047 L47.8919533,23.9855047 C46.1533693,23.9855047 44.6575693,22.9962246 43.9199292,21.5457846 L43.9199292,21.5457846 L39.9932651,13.7116804 C39.4221611,12.5718484 38.2561931,11.8521363 36.981145,11.8521363 L36.981145,11.8521363 L11.4529683,11.8521363 C10.1738163,11.8521363 9.00504025,12.5766004 8.43588024,13.7218324 L8.43588024,13.7218324 L0.496368014,29.6978408 C-0.147528004,30.9938409 0.108000003,32.5563849 1.13119203,33.5797929 L1.13119203,33.5797929 L6.64761619,39.0960011 L13.6574644,39.0960011 C17.9681765,39.0960011 20.8656006,35.495929 20.7915126,31.7936889 L20.7915126,31.7936889 L28.0454408,39.0960011 L56.2016896,39.0960011 C58.0309936,39.0960011 59.5138337,37.6131611 59.5138337,35.784073 L59.5138337,35.784073 C59.5138337,33.954769 58.0309936,32.4719289 56.2016896,32.4719289 L56.2016896,32.4719289 L50.6507054,32.4719289 C56.4379936,31.2085449 60.7716017,26.0554327 60.7716017,19.8892806 L60.7716017,19.8892806 L62.0544257,18.8462165 C62.6901138,18.3291125 63.0592578,17.5532405 63.0592578,16.7337365 L63.0592578,16.7337365 L63.0592578,15.0774484 C63.0592578,13.4336884 64.3917618,12.1007523 66.0357379,12.1007523 L66.0357379,12.1007523 L70.51061,12.1007523 C71.292746,12.1007523 71.926922,11.4667923 71.926922,10.6844403 L71.926922,10.6844403 L71.926922,8.13693623 C71.926922,6.55970418 70.648202,5.28098415 69.0707539,5.28098415 L69.0707539,5.28098415 L67.7371699,5.28098415 C66.4422499,5.28098415 65.1898818,4.84164014 64.1630178,4.05259211 L64.1630178,4.05259211 C62.9119458,3.09139209 61.3424897,2.52417607 59.6399777,2.53670407 L59.6399777,2.53670407 C57.7752496,2.55096007 56.0686336,3.27110409 54.7767375,4.44225613 L54.7767375,4.44225613 C54.7272735,3.34497609 54.2846895,2.26216806 53.4468255,1.42430404 L53.4468255,1.42430404 C52.5960015,0.573264016 51.4928894,0.129384004 50.3783294,0.0913680026 L50.3783294,0.0913680026 C50.4163454,1.20571203 50.8604414,2.30882406 51.7110495,3.15964809" id="path-17"></path>
        <path d="M51.7110495,3.15964809 C52.5482655,3.99664811 53.6295615,4.43923212 54.7257615,4.48956013 L54.7257615,4.48956013 C53.2956255,5.81061616 52.3873455,7.68895222 52.3579695,9.77097628 L52.3579695,9.77097628 C52.3568895,9.84657628 52.3575375,9.92217628 52.3588335,9.99756028 L52.3588335,9.99756028 L52.3575375,9.99756028 L52.3575375,19.5203525 C52.3575375,21.9864246 50.3580254,23.9855047 47.8919533,23.9855047 L47.8919533,23.9855047 C46.1533693,23.9855047 44.6575693,22.9962246 43.9199292,21.5457846 L43.9199292,21.5457846 L39.9932651,13.7116804 C39.4221611,12.5718484 38.2561931,11.8521363 36.981145,11.8521363 L36.981145,11.8521363 L11.4529683,11.8521363 C10.1738163,11.8521363 9.00504025,12.5766004 8.43588024,13.7218324 L8.43588024,13.7218324 L0.496368014,29.6978408 C-0.147528004,30.9938409 0.108000003,32.5563849 1.13119203,33.5797929 L1.13119203,33.5797929 L6.64761619,39.0960011 L13.6574644,39.0960011 C17.9681765,39.0960011 20.8656006,35.495929 20.7915126,31.7936889 L20.7915126,31.7936889 L28.0454408,39.0960011 L56.2016896,39.0960011 C58.0309936,39.0960011 59.5138337,37.6131611 59.5138337,35.784073 L59.5138337,35.784073 C59.5138337,33.954769 58.0309936,32.4719289 56.2016896,32.4719289 L56.2016896,32.4719289 L50.6507054,32.4719289 C56.4379936,31.2085449 60.7716017,26.0554327 60.7716017,19.8892806 L60.7716017,19.8892806 L62.0544257,18.8462165 C62.6901138,18.3291125 63.0592578,17.5532405 63.0592578,16.7337365 L63.0592578,16.7337365 L63.0592578,15.0774484 C63.0592578,13.4336884 64.3917618,12.1007523 66.0357379,12.1007523 L66.0357379,12.1007523 L70.51061,12.1007523 C71.292746,12.1007523 71.926922,11.4667923 71.926922,10.6844403 L71.926922,10.6844403 L71.926922,8.13693623 C71.926922,6.55970418 70.648202,5.28098415 69.0707539,5.28098415 L69.0707539,5.28098415 L67.7371699,5.28098415 C66.4422499,5.28098415 65.1898818,4.84164014 64.1630178,4.05259211 L64.1630178,4.05259211 C62.9119458,3.09139209 61.3424897,2.52417607 59.6399777,2.53670407 L59.6399777,2.53670407 C57.7752496,2.55096007 56.0686336,3.27110409 54.7767375,4.44225613 L54.7767375,4.44225613 C54.7272735,3.34497609 54.2846895,2.26216806 53.4468255,1.42430404 L53.4468255,1.42430404 C52.5960015,0.573264016 51.4928894,0.129384004 50.3783294,0.0913680026 L50.3783294,0.0913680026 C50.4163454,1.20571203 50.8604414,2.30882406 51.7110495,3.15964809 L51.7110495,3.15964809 Z" id="path-19"></path>
        <path d="M51.7110495,3.15964809 C52.5482655,3.99664811 53.6295615,4.43923212 54.7257615,4.48956013 L54.7257615,4.48956013 C53.2956255,5.81061616 52.3873455,7.68895222 52.3579695,9.77097628 L52.3579695,9.77097628 C52.3568895,9.84657628 52.3575375,9.92217628 52.3588335,9.99756028 L52.3588335,9.99756028 L52.3575375,9.99756028 L52.3575375,19.5203525 C52.3575375,21.9864246 50.3580254,23.9855047 47.8919533,23.9855047 L47.8919533,23.9855047 C46.1533693,23.9855047 44.6575693,22.9962246 43.9199292,21.5457846 L43.9199292,21.5457846 L39.9932651,13.7116804 C39.4221611,12.5718484 38.2561931,11.8521363 36.981145,11.8521363 L36.981145,11.8521363 L11.4529683,11.8521363 C10.1738163,11.8521363 9.00504025,12.5766004 8.43588024,13.7218324 L8.43588024,13.7218324 L0.496368014,29.6978408 C-0.147528004,30.9938409 0.108000003,32.5563849 1.13119203,33.5797929 L1.13119203,33.5797929 L6.64761619,39.0960011 L13.6574644,39.0960011 C17.9681765,39.0960011 20.8656006,35.495929 20.7915126,31.7936889 L20.7915126,31.7936889 L28.0454408,39.0960011 L56.2016896,39.0960011 C58.0309936,39.0960011 59.5138337,37.6131611 59.5138337,35.784073 L59.5138337,35.784073 C59.5138337,33.954769 58.0309936,32.4719289 56.2016896,32.4719289 L56.2016896,32.4719289 L50.6507054,32.4719289 C56.4379936,31.2085449 60.7716017,26.0554327 60.7716017,19.8892806 L60.7716017,19.8892806 L62.0544257,18.8462165 C62.6901138,18.3291125 63.0592578,17.5532405 63.0592578,16.7337365 L63.0592578,16.7337365 L63.0592578,15.0774484 C63.0592578,13.4336884 64.3917618,12.1007523 66.0357379,12.1007523 L66.0357379,12.1007523 L70.51061,12.1007523 C71.292746,12.1007523 71.926922,11.4667923 71.926922,10.6844403 L71.926922,10.6844403 L71.926922,8.13693623 C71.926922,6.55970418 70.648202,5.28098415 69.0707539,5.28098415 L69.0707539,5.28098415 L67.7371699,5.28098415 C66.4422499,5.28098415 65.1898818,4.84164014 64.1630178,4.05259211 L64.1630178,4.05259211 C62.9119458,3.09139209 61.3424897,2.52417607 59.6399777,2.53670407 L59.6399777,2.53670407 C57.7752496,2.55096007 56.0686336,3.27110409 54.7767375,4.44225613 L54.7767375,4.44225613 C54.7272735,3.34497609 54.2846895,2.26216806 53.4468255,1.42430404 L53.4468255,1.42430404 C52.5960015,0.573264016 51.4928894,0.129384004 50.3783294,0.0913680026 L50.3783294,0.0913680026 C50.4163454,1.20571203 50.8604414,2.30882406 51.7110495,3.15964809 L51.7110495,3.15964809 Z" id="path-21"></path>
        <path d="M51.7110495,3.15964809 C52.5482655,3.99664811 53.6295615,4.43923212 54.7257615,4.48956013 L54.7257615,4.48956013 C53.2956255,5.81061616 52.3873455,7.68895222 52.3579695,9.77097628 L52.3579695,9.77097628 C52.3568895,9.84657628 52.3575375,9.92217628 52.3588335,9.99756028 L52.3588335,9.99756028 L52.3575375,9.99756028 L52.3575375,19.5203525 C52.3575375,21.9864246 50.3580254,23.9855047 47.8919533,23.9855047 L47.8919533,23.9855047 C46.1533693,23.9855047 44.6575693,22.9962246 43.9199292,21.5457846 L43.9199292,21.5457846 L39.9932651,13.7116804 C39.4221611,12.5718484 38.2561931,11.8521363 36.981145,11.8521363 L36.981145,11.8521363 L11.4529683,11.8521363 C10.1738163,11.8521363 9.00504025,12.5766004 8.43588024,13.7218324 L8.43588024,13.7218324 L0.496368014,29.6978408 C-0.147528004,30.9938409 0.108000003,32.5563849 1.13119203,33.5797929 L1.13119203,33.5797929 L6.64761619,39.0960011 L13.6574644,39.0960011 C17.9681765,39.0960011 20.8656006,35.495929 20.7915126,31.7936889 L20.7915126,31.7936889 L28.0454408,39.0960011 L56.2016896,39.0960011 C58.0309936,39.0960011 59.5138337,37.6131611 59.5138337,35.784073 L59.5138337,35.784073 C59.5138337,33.954769 58.0309936,32.4719289 56.2016896,32.4719289 L56.2016896,32.4719289 L50.6507054,32.4719289 C56.4379936,31.2085449 60.7716017,26.0554327 60.7716017,19.8892806 L60.7716017,19.8892806 L62.0544257,18.8462165 C62.6901138,18.3291125 63.0592578,17.5532405 63.0592578,16.7337365 L63.0592578,16.7337365 L63.0592578,15.0774484 C63.0592578,13.4336884 64.3917618,12.1007523 66.0357379,12.1007523 L66.0357379,12.1007523 L70.51061,12.1007523 C71.292746,12.1007523 71.926922,11.4667923 71.926922,10.6844403 L71.926922,10.6844403 L71.926922,8.13693623 C71.926922,6.55970418 70.648202,5.28098415 69.0707539,5.28098415 L69.0707539,5.28098415 L67.7371699,5.28098415 C66.4422499,5.28098415 65.1898818,4.84164014 64.1630178,4.05259211 L64.1630178,4.05259211 C62.9119458,3.09139209 61.3424897,2.52417607 59.6399777,2.53670407 L59.6399777,2.53670407 C57.7752496,2.55096007 56.0686336,3.27110409 54.7767375,4.44225613 L54.7767375,4.44225613 C54.7272735,3.34497609 54.2846895,2.26216806 53.4468255,1.42430404 L53.4468255,1.42430404 C52.5960015,0.573264016 51.4928894,0.129384004 50.3783294,0.0913680026 L50.3783294,0.0913680026 C50.4163454,1.20571203 50.8604414,2.30882406 51.7110495,3.15964809 L51.7110495,3.15964809 Z" id="path-23"></path>
        <path d="M51.7110495,3.15964809 C52.5482655,3.99664811 53.6295615,4.43923212 54.7257615,4.48956013 L54.7257615,4.48956013 C53.2956255,5.81061616 52.3873455,7.68895222 52.3579695,9.77097628 L52.3579695,9.77097628 C52.3568895,9.84657628 52.3575375,9.92217628 52.3588335,9.99756028 L52.3588335,9.99756028 L52.3575375,9.99756028 L52.3575375,19.5203525 C52.3575375,21.9864246 50.3580254,23.9855047 47.8919533,23.9855047 L47.8919533,23.9855047 C46.1533693,23.9855047 44.6575693,22.9962246 43.9199292,21.5457846 L43.9199292,21.5457846 L39.9932651,13.7116804 C39.4221611,12.5718484 38.2561931,11.8521363 36.981145,11.8521363 L36.981145,11.8521363 L11.4529683,11.8521363 C10.1738163,11.8521363 9.00504025,12.5766004 8.43588024,13.7218324 L8.43588024,13.7218324 L0.496368014,29.6978408 C-0.147528004,30.9938409 0.108000003,32.5563849 1.13119203,33.5797929 L1.13119203,33.5797929 L6.64761619,39.0960011 L13.6574644,39.0960011 C17.9681765,39.0960011 20.8656006,35.495929 20.7915126,31.7936889 L20.7915126,31.7936889 L28.0454408,39.0960011 L56.2016896,39.0960011 C58.0309936,39.0960011 59.5138337,37.6131611 59.5138337,35.784073 L59.5138337,35.784073 C59.5138337,33.954769 58.0309936,32.4719289 56.2016896,32.4719289 L56.2016896,32.4719289 L50.6507054,32.4719289 C56.4379936,31.2085449 60.7716017,26.0554327 60.7716017,19.8892806 L60.7716017,19.8892806 L62.0544257,18.8462165 C62.6901138,18.3291125 63.0592578,17.5532405 63.0592578,16.7337365 L63.0592578,16.7337365 L63.0592578,15.0774484 C63.0592578,13.4336884 64.3917618,12.1007523 66.0357379,12.1007523 L66.0357379,12.1007523 L70.51061,12.1007523 C71.292746,12.1007523 71.926922,11.4667923 71.926922,10.6844403 L71.926922,10.6844403 L71.926922,8.13693623 C71.926922,6.55970418 70.648202,5.28098415 69.0707539,5.28098415 L69.0707539,5.28098415 L67.7371699,5.28098415 C66.4422499,5.28098415 65.1898818,4.84164014 64.1630178,4.05259211 L64.1630178,4.05259211 C62.9119458,3.09139209 61.3424897,2.52417607 59.6399777,2.53670407 L59.6399777,2.53670407 C57.7752496,2.55096007 56.0686336,3.27110409 54.7767375,4.44225613 L54.7767375,4.44225613 C54.7272735,3.34497609 54.2846895,2.26216806 53.4468255,1.42430404 L53.4468255,1.42430404 C52.5960015,0.573264016 51.4928894,0.129384004 50.3783294,0.0913680026 L50.3783294,0.0913680026 C50.4163454,1.20571203 50.8604414,2.30882406 51.7110495,3.15964809 L51.7110495,3.15964809 Z" id="path-25"></path>
        <path d="M51.7110495,3.15964809 C52.5482655,3.99664811 53.6295615,4.43923212 54.7257615,4.48956013 L54.7257615,4.48956013 C53.2956255,5.81061616 52.3873455,7.68895222 52.3579695,9.77097628 L52.3579695,9.77097628 C52.3568895,9.84657628 52.3575375,9.92217628 52.3588335,9.99756028 L52.3588335,9.99756028 L52.3575375,9.99756028 L52.3575375,19.5203525 C52.3575375,21.9864246 50.3580254,23.9855047 47.8919533,23.9855047 L47.8919533,23.9855047 C46.1533693,23.9855047 44.6575693,22.9962246 43.9199292,21.5457846 L43.9199292,21.5457846 L39.9932651,13.7116804 C39.4221611,12.5718484 38.2561931,11.8521363 36.981145,11.8521363 L36.981145,11.8521363 L11.4529683,11.8521363 C10.1738163,11.8521363 9.00504025,12.5766004 8.43588024,13.7218324 L8.43588024,13.7218324 L0.496368014,29.6978408 C-0.147528004,30.9938409 0.108000003,32.5563849 1.13119203,33.5797929 L1.13119203,33.5797929 L6.64761619,39.0960011 L13.6574644,39.0960011 C17.9681765,39.0960011 20.8656006,35.495929 20.7915126,31.7936889 L20.7915126,31.7936889 L28.0454408,39.0960011 L56.2016896,39.0960011 C58.0309936,39.0960011 59.5138337,37.6131611 59.5138337,35.784073 L59.5138337,35.784073 C59.5138337,33.954769 58.0309936,32.4719289 56.2016896,32.4719289 L56.2016896,32.4719289 L50.6507054,32.4719289 C56.4379936,31.2085449 60.7716017,26.0554327 60.7716017,19.8892806 L60.7716017,19.8892806 L62.0544257,18.8462165 C62.6901138,18.3291125 63.0592578,17.5532405 63.0592578,16.7337365 L63.0592578,16.7337365 L63.0592578,15.0774484 C63.0592578,13.4336884 64.3917618,12.1007523 66.0357379,12.1007523 L66.0357379,12.1007523 L70.51061,12.1007523 C71.292746,12.1007523 71.926922,11.4667923 71.926922,10.6844403 L71.926922,10.6844403 L71.926922,8.13693623 C71.926922,6.55970418 70.648202,5.28098415 69.0707539,5.28098415 L69.0707539,5.28098415 L67.7371699,5.28098415 C66.4422499,5.28098415 65.1898818,4.84164014 64.1630178,4.05259211 L64.1630178,4.05259211 C62.9119458,3.09139209 61.3424897,2.52417607 59.6399777,2.53670407 L59.6399777,2.53670407 C57.7752496,2.55096007 56.0686336,3.27110409 54.7767375,4.44225613 L54.7767375,4.44225613 C54.7272735,3.34497609 54.2846895,2.26216806 53.4468255,1.42430404 L53.4468255,1.42430404 C52.5960015,0.573264016 51.4928894,0.129384004 50.3783294,0.0913680026 L50.3783294,0.0913680026 C50.4163454,1.20571203 50.8604414,2.30882406 51.7110495,3.15964809 L51.7110495,3.15964809 Z" id="path-27"></path>
        <path d="M4.14093612,0.111888003 C3.5331121,0.111888003 2.95012808,0.35359201 2.52028807,0.783432022 L2.52028807,0.783432022 L1.34935204,1.95393605 L1.34935204,1.30075204 C1.34935204,0.644328018 0.817344023,0.111888003 0.160920005,0.111888003 L0.160920005,0.111888003 L0.160920005,4.00140011 L0.161136005,4.00096811 C0.158328004,4.54161613 0.36288001,5.08312814 0.775440022,5.49590415 L0.775440022,5.49590415 C1.59494404,6.31540818 2.92377608,6.31540818 3.74328011,5.49590415 L3.74328011,5.49590415 L5.48812815,3.75105611 C5.91775217,3.32121609 6.15945617,2.73823208 6.15945617,2.13019206 L6.15945617,2.13019206 L6.15945617,0.111888003" id="path-29"></path>
    </defs>
    <g id="Page-1" stroke="none" stroke-width="1" fill="none" fill-rule="evenodd">
        <g id="CTA" transform="translate(-703.000000, -631.000000)">
            <g id="Group-4" transform="translate(703.000000, 631.000000)">
                <mask id="mask-2" fill="white">
                    <use xlink:href="#path-1"></use>
                </mask>
                <use id="Rectangle" fill="#E8F0FE" xlink:href="#path-1"></use>
                <g id="Group-2" mask="url(#mask-2)">
                    <g transform="translate(-29.000000, 10.000000)">
                        <path d="M51.6688373,34.2288946 L60.2306455,30.0073904 L64.5465417,35.8400386 L68.8691338,35.8400386 L63.0619736,26.1219823 C62.0262536,24.3887983 59.8483255,23.7191983 58.0179415,24.5704543 L47.5142932,29.4559424 L51.6688373,34.2288946 Z" id="Fill-29" fill="#4285F4"></path>
                        <g id="Group-33" stroke-width="1" fill="none" transform="translate(29.807930, 21.168001)">
                            <mask id="mask-4" fill="white">
                                <use xlink:href="#path-3"></use>
                            </mask>
                            <g id="Clip-32"></g>
                            <path d="M69.0708187,5.28087615 L67.7372347,5.28087615 C66.4423147,5.28087615 65.1897306,4.84174814 64.1630826,4.05248411 C62.9120106,3.09128409 61.3425545,2.52406807 59.6398265,2.53681207 C57.7753144,2.55085207 56.0684824,3.27099609 54.7768023,4.44214813 C54.7271223,3.34486809 54.2845383,2.26206006 53.4468903,1.42419604 C52.5960663,0.573372016 51.4929542,0.129276004 50.3783942,0.0914760026 C50.4164102,1.20582003 50.8605062,2.30893206 51.7111143,3.15975609 C52.5481143,3.99675611 53.6296263,4.43934012 54.7256103,4.48945213 C53.2956903,5.81050816 52.3871943,7.68884422 52.3580343,9.77086828 C52.3569543,9.84668428 52.3576023,9.92206828 52.3586823,9.99766828 L52.3573863,9.99766828 L52.3573863,19.5202445 C52.3573863,21.9865326 50.3580902,23.9856127 47.8920181,23.9856127 C46.1534341,23.9856127 44.6576341,22.9963326 43.919994,21.5458926 L39.9933299,13.7115724 C39.4220099,12.5719564 38.2562579,11.8522443 36.9814258,11.8522443 L11.4530331,11.8522443 C10.1738811,11.8522443 9.00510505,12.5764924 8.43594504,13.7219404 L0.496432814,29.6979488 C-0.147463204,30.9937329 0.108064803,32.5562769 1.13125683,33.5796849 L6.64768099,39.0961091 L13.6575292,39.0961091 C17.9680253,39.0961091 20.8656654,35.496037 20.7913614,31.7937969 L28.0452896,39.0961091 L56.2017544,39.0961091 C58.0310584,39.0961091 59.5138985,37.6132691 59.5138985,35.783965 C59.5138985,33.954661 58.0310584,32.4718209 56.2017544,32.4718209 L50.6505542,32.4718209 C56.4380584,31.2086529 60.7714505,26.0555407 60.7714505,19.8893886 L62.0542745,18.8463245 C62.6899626,18.3292205 63.0591066,17.5531325 63.0591066,16.7336285 L63.0591066,15.0773404 C63.0591066,13.4335804 64.3918266,12.1008603 66.0358027,12.1008603 L70.5104588,12.1008603 C71.2928108,12.1008603 71.9269868,11.4669003 71.9269868,10.6845483 L71.9269868,8.13704423 C71.9269868,6.55959618 70.6482668,5.28087615 69.0708187,5.28087615" id="Fill-31" fill="#FBBC04" mask="url(#mask-4)"></path>
                        </g>
                        <g id="Group-71" stroke-width="1" fill="none" transform="translate(29.807930, 21.168001)">
                            <g id="Group-37">
                                <mask id="mask-6" fill="white">
                                    <use xlink:href="#path-5"></use>
                                </mask>
                                <g id="Clip-36"></g>
                                <line x1="1.57556884" y1="25.2771199" x2="9.91424908" y2="33.6158001" id="Stroke-35" stroke="#5F6368" stroke-width="0.600000024" mask="url(#mask-6)"></line>
                            </g>
                            <g id="Group-40">
                                <mask id="mask-8" fill="white">
                                    <use xlink:href="#path-7"></use>
                                </mask>
                                <g id="Clip-39"></g>
                            </g>
                            <g id="Group-43">
                                <mask id="mask-10" fill="white">
                                    <use xlink:href="#path-9"></use>
                                </mask>
                                <g id="Clip-42"></g>
                            </g>
                            <g id="Group-46">
                                <mask id="mask-12" fill="white">
                                    <use xlink:href="#path-11"></use>
                                </mask>
                                <g id="Clip-45"></g>
                                <polygon id="Fill-44" fill="#EA4335" mask="url(#mask-12)" points="36.3615922 27.3801608 19.3332317 27.3801608 13.2085516 21.3150966 13.2085516 11.8069923 36.3615922 11.8069923"></polygon>
                            </g>
                            <g id="Group-49">
                                <mask id="mask-14" fill="white">
                                    <use xlink:href="#path-13"></use>
                                </mask>
                                <g id="Clip-48"></g>
                                <path d="M20.8877406,31.7938185 C20.8553406,30.1766264 20.2555086,28.5399944 18.9582125,27.1750904 C18.9076685,27.1219544 18.8564765,27.0694664 18.8042045,27.0174104 L11.5839723,19.7969622" id="Stroke-47" stroke="#5F6368" stroke-width="0.600000024" mask="url(#mask-14)"></path>
                            </g>
                            <g id="Group-52">
                                <mask id="mask-16" fill="white">
                                    <use xlink:href="#path-15"></use>
                                </mask>
                                <g id="Clip-51"></g>
                                <line x1="68.9380435" y1="7.84524982" x2="72.1469396" y2="9.27106586" id="Stroke-50" stroke="#5F6368" stroke-width="0.600000024" mask="url(#mask-16)"></line>
                            </g>
                            <g id="Group-55">
                                <mask id="mask-18" fill="white">
                                    <use xlink:href="#path-17"></use>
                                </mask>
                                <g id="Clip-54"></g>
                                <path d="M71.998634,10.5241467 C69.913586,10.4813787 69.912722,10.6997547 67.8270259,9.89429068" id="Stroke-53" stroke="#5F6368" stroke-width="0.600000024" mask="url(#mask-18)"></path>
                            </g>
                            <g id="Group-58">
                                <mask id="mask-20" fill="white">
                                    <use xlink:href="#path-19"></use>
                                </mask>
                                <g id="Clip-57"></g>
                            </g>
                            <g id="Group-61">
                                <mask id="mask-22" fill="white">
                                    <use xlink:href="#path-21"></use>
                                </mask>
                                <g id="Clip-60"></g>
                            </g>
                            <g id="Group-64">
                                <mask id="mask-24" fill="white">
                                    <use xlink:href="#path-23"></use>
                                </mask>
                                <g id="Clip-63"></g>
                            </g>
                            <g id="Group-67">
                                <mask id="mask-26" fill="white">
                                    <use xlink:href="#path-25"></use>
                                </mask>
                                <g id="Clip-66"></g>
                            </g>
                            <g id="Group-70">
                                <mask id="mask-28" fill="white">
                                    <use xlink:href="#path-27"></use>
                                </mask>
                                <g id="Clip-69"></g>
                            </g>
                        </g>
                        <g id="Group-82" stroke-width="1" fill="none" transform="translate(28.943930, 0.000000)">
                            <path d="M60.0659081,27.7503632 C59.6190041,27.7503632 59.2567721,28.1125952 59.2567721,28.5594992 C59.2567721,29.0061872 59.6190041,29.3686352 60.0659081,29.3686352 C60.5128121,29.3686352 60.8752601,29.0061872 60.8752601,28.5594992 C60.8752601,28.1125952 60.5128121,27.7503632 60.0659081,27.7503632" id="Fill-72" fill="#5F6368"></path>
                            <path d="M63.0383274,35.174521 C63.0206154,37.3455371 63.4580154,39.5191451 64.3135914,41.5147692" id="Stroke-74" stroke="#5F6368" stroke-width="0.600000024"></path>
                            <path d="M61.2787913,39.5202467 C61.3863593,41.4899508 62.1328553,43.4199108 63.3789594,44.9491909" id="Stroke-76" stroke="#5F6368" stroke-width="0.600000024"></path>
                            <path d="M22.5212406,9.33657866 L22.5212406,9.33636266 C22.5212406,6.35383458 20.1033366,3.93593051 17.1208085,3.93593051 C15.2476564,3.93593051 13.3915684,4.28952252 11.6495283,4.97769854 L9.05407225,6.00369857 C7.73215222,6.52598658 6.32361618,6.79425859 4.90212014,6.79425859 C3.21580809,6.79425859 1.56146404,6.33353058 0.117936003,5.46175455 L2.14423206,9.28841066 C3.4778161,11.8067547 6.09379217,13.3816108 8.94326425,13.3816108 L18.4036325,13.3816108 L22.5212406,9.33657866 Z" id="Fill-78" fill="#EA4335"></path>
                            <path d="M26.2968127,0.112060803 C26.9534528,0.112060803 27.4854608,0.644284818 27.4854608,1.30070884 L27.4854608,1.95389285 L28.6561808,0.783388822 C29.0862368,0.35354881 29.6692208,0.112060803 30.2770449,0.112060803 L32.2953489,0.112060803 L32.2953489,2.13036486 C32.2953489,2.73818888 32.0538609,3.32117289 31.6240209,3.75122891 L29.8793888,5.49586095 C29.0598848,6.31558098 27.7310528,6.31558098 26.9115488,5.49586095 C26.4989887,5.08330094 26.2942207,4.54157293 26.2970287,4.00092491 L26.2968127,4.00135691 L26.2968127,0.112060803 Z" id="Fill-80" fill="#DCDFE1"></path>
                        </g>
                        <g id="Group-85" stroke-width="1" fill="none" transform="translate(55.079931, 0.000000)">
                            <mask id="mask-30" fill="white">
                                <use xlink:href="#path-29"></use>
                            </mask>
                            <g id="Clip-84"></g>
                            <path d="M2.68457768,3.87856091 C2.68457768,2.98367288 2.15710566,2.21233686 1.39592164,1.85809685" id="Stroke-83" stroke="#5F6368" stroke-width="0.600000024" mask="url(#mask-30)"></path>
                        </g>
                        <g id="Group-104" stroke-width="1" fill="none" transform="translate(33.479930, 5.184000)">
                            <path d="M18.4395965,15.6136468 C23.4173167,12.3580947 26.3890447,6.86759059 26.3890447,0.926510426 L21.7623246,0.926510426 C21.7623246,5.30072655 19.5733806,9.34381466 15.9069964,11.7416307 L18.4395965,15.6136468 Z" id="Fill-86" fill="#FBBC04"></path>
                            <path d="M13.8675244,8.27007863 C16.1415725,8.27007863 17.9851325,6.42673458 17.9851325,4.15268652 L9.74991627,4.15268652 C9.74991627,6.42673458 11.5934763,8.27007863 13.8675244,8.27007863" id="Fill-88" fill="#DCDFE1"></path>
                            <path d="M13.8675244,0.034862401 C11.5934763,0.034862401 9.74991627,1.87820645 9.74991627,4.15247052 L17.9851325,4.15247052 C17.9851325,1.87820645 16.1415725,0.034862401 13.8675244,0.034862401" id="Fill-90" fill="#EA4335"></path>
                            <path d="M12.8825644,29.16512 L19.6617246,29.16512 L21.2346366,41.4449364 L25.3433887,41.4449364 L25.3433887,26.976824 C25.3433887,24.4329919 23.2812367,22.3706238 20.7374046,22.3706238 L8.90017225,22.3706238 L8.90017225,25.1827279 C8.90017225,27.382256 10.6832523,29.16512 12.8825644,29.16512" id="Fill-92" fill="#4285F4"></path>
                            <path d="M21.3472806,9.16192106 L13.2375604,9.16192106 C10.2967203,9.16192106 7.91251222,11.5459131 7.91251222,14.4869692 L7.91251222,21.1123374 C7.91251222,22.7990814 9.28000826,24.1665775 10.9667523,24.1665775 L19.6905606,24.1665775 L19.6905606,21.6989934 L21.3472806,21.6989934 L21.3472806,9.16192106 Z" id="Fill-94" fill="#FBBC04"></path>
                            <line x1="12.0099027" y1="13.407466" x2="12.0099027" y2="20.5771542" id="Stroke-96" stroke="#5F6368" stroke-width="0.600000024"></line>
                            <path d="M23.1839071,23.4913183 L21.492411,21.8153742 C20.862339,21.1388622 19.964427,20.7150702 18.9669389,20.7150702 L17.1218669,20.7150702 L17.1218669,22.4409102 C17.1218669,23.3939023 17.8944989,24.1665343 18.8474909,24.1665343 L19.1615549,24.1665343 L22.418187,24.1665343 L22.905915,24.1665343 C23.2584271,24.1665343 23.4342511,23.7395023 23.1839071,23.4913183" id="Fill-98" fill="#DCDFE1"></path>
                            <path d="M18.2670557,21.414867 L22.1563518,21.414867 C22.1563518,22.071291 21.6241278,22.603515 20.9677038,22.603515 L18.4309997,22.603515" id="Fill-100" fill="#DCDFE1"></path>
                            <path d="M0.0671544019,16.0753901 L7.37853861,16.0753901 C11.9713467,16.0753901 16.1312909,13.363942 17.9852189,9.16187786 L10.6738347,9.16187786 C6.08102657,9.16187786 1.92108245,11.8733259 0.0671544019,16.0753901" id="Fill-102" fill="#34A853"></path>
                        </g>
                    </g>
                </g>
                <g id="Group" mask="url(#mask-2)">
                    <g transform="translate(28.594226, 21.000000)" id="Group" fill-rule="nonzero">
                        <path d="M23.4666667,2.65625 C23.22,1.615 22.404,0.789285714 21.3333333,0.53125 C19.5,0 12,0 12.2666667,0 C12,0 4.5,0 2.66666667,0.53125 C1.596,0.789285714 0.78,1.615 0.533333333,2.65625 C0,4.55357143 0,8.5 0,8.5 C0,8.5 0,12.4464286 0.533333333,14.34375 C0.78,15.385 1.596,16.2107143 2.66666667,16.46875 C4.5,17 12,17 12.2666667,17 C12,17 19.5,17 21.3333333,16.46875 C22.404,16.2107143 23.22,15.385 23.4666667,14.34375 C24,12.4464286 24,8.5 24,8.5 C24,8.5 24,4.55357143 23.4666667,2.65625 Z" id="Button" fill="#282828"></path>
                        <polygon id="Play" fill="#FFFFFF" points="9 12 9 5 15.5 8.76923077"></polygon>
                    </g>
                </g>
            </g>
        </g>
    </g>
</svg>