<?xml version="1.0" standalone="no"?>
<!DOCTYPE svg PUBLIC "-//W3C//DTD SVG 20010904//EN"
 "http://www.w3.org/TR/2001/REC-SVG-20010904/DTD/svg10.dtd">
<svg version="1.0" xmlns="http://www.w3.org/2000/svg"
 width="1267.000000pt" height="1267.000000pt" viewBox="0 0 1267.000000 1267.000000"
 preserveAspectRatio="xMidYMid meet">
<metadata>
Created by potrace 1.14, written by Peter Selinger 2001-2017
</metadata>
<g transform="translate(0.000000,1267.000000) scale(0.100000,-0.100000)"
fill="#000000" stroke="none">
<path d="M8860 10949 c-132 -12 -197 -25 -335 -65 -189 -55 -216 -64 -283 -95
-35 -16 -70 -29 -78 -29 -18 0 -162 -69 -170 -81 -3 -5 -14 -9 -26 -9 -11 0
-55 -20 -98 -44 -42 -23 -88 -46 -101 -49 -13 -3 -54 -26 -91 -50 -37 -25 -79
-47 -92 -51 -14 -3 -32 -13 -40 -22 -9 -8 -53 -36 -97 -60 -45 -25 -88 -51
-95 -59 -8 -7 -19 -15 -26 -18 -7 -2 -10 -8 -6 -12 4 -4 25 3 45 17 71 47 116
72 137 74 12 1 53 21 93 43 40 23 81 41 91 41 10 0 22 4 27 9 26 24 302 127
430 161 286 75 589 74 671 -2 50 -45 55 -169 14 -309 -11 -36 -24 -90 -30
-119 -5 -29 -28 -94 -50 -144 -22 -50 -40 -97 -40 -105 0 -7 -20 -55 -45 -107
-25 -51 -45 -98 -45 -104 0 -12 -34 -81 -180 -365 -51 -100 -103 -197 -175
-330 -20 -38 -50 -89 -66 -112 -16 -23 -29 -47 -29 -53 0 -6 -20 -41 -45 -78
-25 -37 -45 -72 -45 -77 0 -6 -20 -40 -45 -75 -25 -35 -45 -68 -45 -73 0 -9
-59 -98 -70 -107 -4 -3 -17 -25 -29 -50 -12 -25 -36 -66 -54 -91 -36 -52 -81
-123 -114 -181 -13 -22 -29 -46 -37 -54 -8 -8 -31 -42 -52 -76 -21 -35 -50
-78 -66 -96 -15 -18 -28 -38 -28 -45 0 -7 -9 -23 -19 -34 -11 -12 -43 -56 -72
-99 -29 -44 -61 -87 -71 -97 -10 -10 -18 -23 -18 -30 0 -7 -22 -39 -50 -72
-27 -33 -50 -65 -50 -70 0 -6 -20 -33 -45 -62 -25 -28 -45 -56 -45 -61 0 -6
-20 -34 -45 -63 -25 -29 -45 -57 -45 -62 0 -5 -15 -26 -32 -47 -37 -42 -127
-162 -144 -191 -6 -11 -24 -34 -40 -51 -16 -17 -38 -46 -49 -64 -11 -17 -74
-98 -140 -179 -66 -81 -125 -156 -131 -167 -7 -11 -30 -39 -53 -62 -23 -23
-41 -46 -41 -50 0 -5 -19 -30 -42 -57 -24 -26 -48 -53 -53 -61 -6 -7 -37 -44
-69 -83 -33 -38 -72 -86 -88 -105 -66 -78 -135 -156 -165 -185 -18 -17 -33
-36 -33 -41 0 -6 -19 -29 -42 -52 -24 -22 -63 -64 -88 -92 -62 -70 -133 -146
-186 -200 -24 -25 -44 -51 -44 -57 0 -7 -7 -13 -15 -13 -8 0 -15 -4 -15 -8 0
-5 -54 -62 -120 -128 -66 -65 -120 -125 -120 -131 0 -7 -6 -13 -12 -13 -7 0
-75 -62 -151 -138 -76 -75 -163 -159 -193 -187 -31 -27 -75 -68 -98 -90 -24
-22 -69 -62 -100 -90 -31 -27 -74 -66 -96 -85 -21 -19 -62 -55 -90 -80 -28
-25 -59 -52 -68 -60 -10 -8 -49 -41 -87 -73 -39 -32 -81 -67 -93 -77 -13 -11
-27 -20 -31 -20 -4 0 -28 -20 -53 -45 -25 -25 -51 -45 -56 -45 -6 0 -30 -17
-54 -38 -24 -20 -74 -59 -111 -86 -37 -27 -67 -52 -67 -56 0 -5 -10 -11 -22
-14 -13 -3 -43 -24 -68 -46 -25 -22 -52 -40 -61 -40 -9 0 -24 -9 -35 -21 -10
-11 -52 -41 -94 -67 -41 -26 -86 -57 -100 -69 -14 -13 -30 -23 -37 -23 -6 0
-41 -20 -77 -45 -37 -25 -70 -45 -74 -45 -4 0 -39 -20 -77 -45 -39 -25 -74
-45 -79 -45 -4 0 -34 -15 -65 -34 -76 -47 -247 -137 -406 -214 -193 -95 -232
-113 -242 -112 -7 0 -36 -11 -65 -24 -129 -59 -171 -76 -187 -76 -9 0 -61 -12
-116 -26 -64 -17 -129 -27 -180 -27 -70 -1 -86 2 -131 27 -45 24 -54 34 -68
78 -20 64 -20 82 3 198 12 66 31 120 59 176 23 44 42 85 42 92 0 13 69 130 81
138 5 3 9 14 9 24 0 10 11 31 23 47 13 15 37 51 52 78 16 28 46 73 67 101 21
28 38 56 38 62 0 6 8 19 18 29 11 10 45 56 77 103 32 47 64 89 72 93 7 4 13
14 13 21 0 8 20 36 45 64 25 27 45 54 45 59 0 5 12 20 26 34 14 13 35 38 47
54 22 33 -41 -35 -122 -130 -28 -33 -66 -76 -84 -95 -19 -19 -40 -46 -47 -60
-7 -14 -30 -40 -51 -58 -22 -19 -39 -39 -39 -46 0 -7 -19 -33 -42 -58 -24 -25
-48 -52 -54 -60 -77 -98 -149 -185 -160 -191 -8 -4 -14 -14 -14 -21 0 -7 -19
-34 -41 -59 -23 -25 -47 -55 -53 -65 -6 -11 -45 -63 -86 -117 -41 -54 -84
-113 -95 -130 -11 -18 -35 -52 -52 -75 -18 -24 -33 -49 -33 -57 0 -7 -4 -13
-8 -13 -5 0 -18 -17 -30 -39 -12 -21 -29 -44 -37 -51 -8 -7 -15 -20 -15 -29 0
-10 -16 -40 -35 -67 -41 -57 -85 -186 -85 -249 0 -51 24 -130 51 -163 52 -66
165 -119 295 -137 213 -30 468 -13 709 47 88 22 178 44 200 48 22 4 81 22 130
40 50 18 108 37 130 42 22 6 86 30 143 54 57 24 109 44 117 44 8 0 59 21 112
46 185 88 288 137 333 160 25 12 63 32 85 43 22 11 47 23 55 25 8 3 47 26 85
51 39 24 75 44 80 45 6 0 41 20 78 44 36 24 77 46 90 50 13 3 35 16 50 28 14
13 43 32 64 43 21 10 66 38 100 62 34 24 68 43 77 43 8 0 19 6 23 13 9 14 99
77 111 77 4 0 28 17 54 38 26 22 60 45 77 52 17 7 31 16 31 20 0 4 35 31 79
59 43 28 89 63 101 76 13 14 29 25 37 25 7 0 34 20 60 45 25 25 52 45 58 45 7
0 24 11 39 25 15 14 51 43 79 64 29 21 65 50 80 65 15 14 32 26 36 26 5 0 33
25 62 55 30 30 59 55 65 55 6 0 31 22 56 48 25 26 51 46 58 44 9 -3 11 1 6 14
-4 10 -4 15 0 12 11 -12 138 91 339 275 111 102 132 118 142 105 14 -19 49
-107 62 -155 7 -23 29 -80 51 -126 22 -46 40 -90 40 -98 0 -16 38 -119 49
-134 5 -5 16 -35 26 -65 10 -30 37 -102 60 -160 23 -58 48 -123 55 -145 7 -22
28 -73 46 -113 19 -40 34 -81 34 -91 0 -11 17 -57 39 -104 21 -46 46 -109 55
-139 8 -30 27 -80 42 -111 l25 -57 700 0 699 0 0 1292 0 1291 35 -39 c19 -21
34 -44 35 -51 0 -6 20 -35 45 -64 25 -29 45 -57 45 -62 0 -10 71 -100 83 -105
4 -2 7 -10 7 -17 0 -8 19 -35 41 -61 23 -27 46 -61 51 -76 6 -15 13 -28 17
-28 5 0 34 -38 65 -84 31 -46 66 -92 76 -101 11 -10 20 -23 20 -29 0 -6 20
-36 45 -66 25 -30 45 -60 45 -66 0 -6 7 -18 17 -25 9 -8 41 -51 70 -96 30 -46
58 -83 63 -83 4 0 15 -16 24 -35 9 -19 22 -40 30 -47 18 -18 136 -182 160
-222 10 -17 34 -48 52 -69 19 -20 34 -43 34 -50 0 -8 9 -22 20 -32 11 -10 44
-55 74 -99 29 -45 60 -87 69 -95 10 -7 17 -19 17 -25 0 -7 15 -30 34 -51 19
-21 40 -50 48 -64 7 -14 15 -28 18 -31 20 -20 80 -100 80 -107 0 -4 20 -33 45
-63 25 -30 45 -60 45 -66 0 -6 7 -18 16 -25 9 -7 38 -46 65 -85 26 -40 62 -87
79 -105 16 -18 30 -39 30 -46 0 -6 8 -19 18 -29 9 -9 42 -53 73 -98 l56 -81
631 -3 c348 -1 632 1 632 5 0 11 -44 73 -52 73 -5 0 -8 6 -8 13 0 7 -19 35
-43 62 -23 28 -49 62 -56 78 -8 15 -18 27 -21 27 -4 0 -28 30 -53 67 -26 38
-58 80 -72 95 -14 15 -25 31 -25 36 0 6 -20 32 -45 60 -25 27 -45 55 -45 60 0
6 -11 23 -25 38 -14 15 -51 63 -82 106 -31 43 -60 78 -65 78 -4 0 -8 6 -8 14
0 8 -20 36 -45 64 -25 27 -45 55 -45 60 0 6 -20 34 -45 63 -25 29 -45 59 -45
66 0 7 -4 13 -8 13 -4 0 -32 34 -62 76 -30 43 -67 91 -82 108 -16 17 -28 34
-28 39 0 5 -20 32 -45 59 -25 28 -45 56 -45 64 0 8 -4 14 -8 14 -5 0 -26 25
-48 56 -21 31 -58 80 -81 110 -24 30 -43 56 -43 60 0 3 -20 29 -45 57 -25 29
-45 55 -45 60 0 4 -11 20 -25 35 -14 15 -46 57 -70 93 -25 36 -56 76 -70 89
-14 13 -25 30 -25 37 0 8 -11 24 -24 36 -13 12 -36 40 -52 63 -106 149 -145
202 -168 223 -14 14 -26 30 -26 37 0 7 -14 28 -31 46 -17 18 -46 56 -65 84
-19 28 -45 63 -59 78 -14 15 -25 31 -25 35 0 5 -20 31 -45 59 -25 27 -45 55
-45 61 0 6 -9 20 -19 30 -11 11 -46 56 -80 101 l-60 83 32 41 c18 23 37 48 42
57 17 28 98 130 138 174 20 23 37 46 37 51 0 5 20 31 45 59 25 27 45 55 45 61
0 6 7 18 16 25 9 8 44 50 77 94 33 44 66 84 73 88 8 4 14 13 14 20 0 7 20 34
45 61 25 27 45 55 45 61 0 7 9 20 21 31 12 10 48 55 82 99 33 44 66 84 74 88
7 4 13 13 13 20 0 7 20 35 45 64 25 28 45 55 45 60 0 4 20 30 45 56 25 27 45
55 45 63 0 8 4 14 8 14 5 0 36 37 70 83 34 46 70 91 82 102 11 10 20 23 20 30
0 6 15 27 34 46 19 19 42 48 52 65 19 32 128 171 164 210 11 12 20 26 20 30 0
5 21 31 45 58 25 27 45 55 45 62 0 7 8 19 18 26 10 7 44 47 75 89 31 42 64 82
72 89 8 7 15 18 15 24 0 6 20 33 45 61 25 27 45 53 45 57 0 4 20 30 44 57 24
27 47 59 51 70 3 12 10 21 15 21 7 0 116 139 166 214 12 17 36 44 53 60 17 17
31 38 31 47 0 10 14 27 30 39 70 50 77 49 -594 50 l-623 0 -37 -40 c-20 -22
-36 -45 -36 -50 0 -6 -19 -35 -42 -64 -62 -79 -141 -188 -154 -211 -6 -11 -25
-36 -42 -55 -18 -19 -35 -44 -38 -55 -4 -11 -9 -22 -13 -25 -14 -12 -81 -99
-81 -106 0 -4 -17 -28 -38 -53 -22 -25 -47 -63 -57 -83 -9 -21 -21 -38 -26
-38 -5 0 -29 -31 -54 -68 -24 -38 -56 -81 -69 -95 -13 -14 -27 -35 -30 -45 -4
-10 -20 -34 -37 -53 -17 -19 -38 -47 -46 -64 -9 -16 -22 -35 -30 -43 -8 -8
-36 -47 -62 -86 -27 -39 -58 -80 -70 -90 -11 -11 -21 -25 -21 -31 0 -7 -20
-37 -45 -67 -25 -30 -45 -58 -45 -62 0 -10 -73 -106 -81 -106 -4 0 -9 -10 -13
-23 -3 -13 -24 -43 -46 -67 -22 -24 -40 -49 -40 -56 0 -7 -13 -28 -29 -46 -15
-18 -50 -64 -76 -103 -27 -38 -55 -76 -62 -83 -7 -7 -13 -17 -13 -22 0 -5 -20
-32 -45 -60 -25 -28 -45 -57 -45 -64 0 -8 -7 -20 -16 -27 -9 -7 -38 -46 -65
-86 -27 -40 -58 -80 -68 -90 -10 -10 -26 -35 -36 -55 -9 -21 -21 -38 -25 -38
-4 0 -34 -39 -66 -87 l-59 -88 -3 209 -2 209 35 34 c19 19 35 40 35 48 0 8 10
21 21 29 12 8 38 37 58 64 88 121 156 208 173 220 10 7 18 19 18 26 0 7 20 36
45 65 25 29 45 56 45 61 0 4 11 21 25 36 38 46 155 205 155 213 0 4 20 31 45
60 25 29 45 57 45 63 0 6 12 25 28 43 51 60 60 73 66 92 4 11 20 35 37 54 17
19 38 48 45 66 8 17 18 34 23 38 11 6 59 77 80 117 8 15 24 37 35 49 12 12 30
39 41 59 11 21 37 63 58 94 20 31 37 59 37 62 0 3 20 34 45 71 25 36 45 70 45
75 0 5 18 36 40 68 22 33 44 69 49 82 5 13 27 51 50 85 22 34 41 68 41 75 0 7
11 29 24 48 22 34 95 175 205 400 28 58 51 113 51 123 0 10 8 34 19 55 29 58
68 185 102 332 76 331 42 585 -108 795 -15 22 -34 44 -42 49 -8 5 -34 26 -57
48 -22 21 -48 38 -56 38 -9 0 -26 8 -39 19 -42 33 -169 68 -284 80 -122 12
-155 12 -295 0z m-2020 -5471 c-1 -172 -2 -190 -15 -168 -8 14 -14 33 -15 43
0 10 -18 55 -41 99 -39 80 -46 128 -17 128 15 0 58 40 58 55 0 10 19 35 27 35
2 0 3 -87 3 -192z"/>
<path d="M7248 10277 c-15 -12 -37 -30 -50 -40 -22 -17 -22 -17 12 -1 43 21
96 64 78 64 -7 0 -25 -11 -40 -23z"/>
<path d="M4412 9067 c-17 -21 -42 -75 -42 -91 0 -8 -20 -57 -45 -109 -25 -53
-45 -102 -45 -109 0 -8 -20 -56 -45 -107 -25 -51 -45 -98 -45 -106 0 -7 -20
-57 -45 -111 -25 -53 -45 -102 -45 -110 0 -7 -20 -54 -45 -105 -25 -51 -45
-98 -45 -105 0 -8 -20 -56 -45 -108 -25 -53 -45 -102 -45 -111 0 -8 -20 -56
-45 -105 -25 -49 -45 -97 -45 -105 0 -9 -20 -59 -45 -111 -25 -51 -45 -101
-45 -109 0 -8 -20 -56 -45 -106 -25 -50 -45 -98 -45 -105 0 -8 -20 -56 -43
-107 -24 -50 -47 -104 -51 -120 -3 -15 -24 -64 -46 -109 -22 -44 -40 -87 -40
-94 0 -8 -20 -56 -45 -108 -25 -53 -45 -102 -45 -109 0 -8 -18 -51 -40 -95
-22 -45 -42 -94 -46 -109 -3 -16 -26 -70 -50 -121 -24 -51 -44 -99 -44 -107 0
-7 -20 -56 -45 -107 -25 -51 -45 -99 -45 -106 0 -7 -20 -57 -45 -111 -25 -54
-45 -103 -45 -110 0 -6 -20 -53 -45 -103 -25 -51 -45 -98 -45 -105 0 -7 -15
-45 -34 -85 -18 -40 -48 -104 -65 -141 -17 -38 -42 -82 -56 -99 -14 -16 -25
-38 -25 -48 0 -9 -7 -23 -15 -30 -8 -6 -26 -32 -40 -56 -14 -24 -30 -44 -35
-44 -6 0 -10 -6 -10 -14 0 -8 -20 -41 -45 -74 -25 -33 -45 -63 -45 -66 0 -4
-21 -36 -47 -71 -80 -108 -107 -146 -128 -180 -11 -18 -37 -53 -57 -77 -21
-25 -38 -49 -38 -53 0 -5 -17 -29 -38 -54 -22 -25 -46 -59 -55 -76 -8 -16 -27
-41 -42 -55 -15 -14 -31 -34 -37 -45 -5 -11 13 5 41 35 28 30 63 69 78 85 15
17 56 68 91 115 104 139 153 191 376 397 116 108 218 203 227 212 9 9 61 56
115 106 54 49 120 110 146 135 27 25 69 64 95 86 27 23 73 65 104 93 31 28 58
51 61 51 3 0 25 19 49 43 24 23 102 92 174 152 71 61 140 122 154 138 14 15
30 27 36 27 6 0 31 20 55 45 24 25 49 45 56 45 6 0 19 9 30 21 10 12 55 48 99
82 44 33 82 64 83 69 2 4 9 8 16 8 7 0 39 24 72 54 44 39 64 67 77 104 9 27
17 55 17 62 0 7 16 46 35 87 19 41 42 100 51 131 9 31 34 97 55 146 22 49 39
98 39 108 0 10 5 26 10 36 21 35 80 184 80 200 0 9 11 39 24 67 35 73 66 152
66 167 0 7 21 62 47 121 47 108 47 108 60 80 7 -15 26 -58 43 -95 16 -37 30
-75 30 -84 0 -9 20 -61 45 -115 24 -54 49 -118 55 -140 7 -23 24 -69 39 -103
16 -34 34 -79 41 -101 7 -22 26 -71 42 -110 17 -38 41 -102 53 -142 13 -39 30
-84 38 -100 23 -43 57 -130 57 -146 0 -8 6 -27 14 -43 42 -87 76 -173 76 -190
0 -7 11 -37 24 -66 13 -29 33 -74 45 -100 11 -26 21 -54 21 -62 0 -8 15 -50
34 -93 19 -43 37 -88 41 -100 l6 -23 -674 0 c-370 0 -676 2 -679 5 -2 3 -1 30
3 60 5 41 23 82 66 156 32 56 68 112 81 126 12 13 29 37 37 53 8 15 26 37 39
47 13 11 32 33 43 49 20 34 65 84 136 151 26 26 47 52 47 58 0 7 12 21 28 31
28 18 45 36 63 67 6 10 -33 -16 -85 -59 -53 -42 -96 -81 -96 -86 0 -5 -9 -12
-19 -16 -21 -8 -122 -95 -178 -154 -20 -21 -39 -38 -43 -38 -8 0 -300 -289
-300 -298 0 -3 -29 -34 -65 -70 -36 -35 -65 -68 -65 -73 0 -5 -7 -9 -15 -9 -8
0 -22 -12 -32 -27 -9 -16 -54 -65 -100 -109 -46 -45 -83 -84 -83 -88 0 -4 -35
-43 -77 -86 -145 -147 -193 -199 -193 -207 0 -5 -20 -26 -45 -46 -25 -21 -45
-43 -45 -49 0 -5 -18 -27 -39 -47 -34 -31 -334 -363 -470 -520 -25 -29 -64
-74 -87 -100 -22 -25 -44 -54 -47 -63 -4 -10 -10 -18 -15 -18 -14 0 -155 -182
-174 -223 -10 -21 -27 -50 -39 -65 -11 -15 -34 -55 -49 -90 -16 -34 -37 -75
-47 -90 -11 -15 -29 -54 -42 -87 -13 -33 -32 -74 -42 -91 -34 -57 -119 -331
-119 -384 0 -140 69 -172 231 -106 46 18 95 37 109 41 14 3 75 29 135 56 112
51 122 56 210 101 28 14 66 33 85 42 19 10 74 38 121 64 48 26 122 66 165 89
44 23 99 56 124 72 25 17 53 31 62 31 9 0 18 4 20 8 4 10 112 82 122 82 4 0
35 19 69 43 34 24 82 55 107 69 25 14 54 35 64 47 11 12 25 21 33 21 8 0 31
13 51 30 51 41 178 134 230 167 52 34 55 50 5 24 -21 -10 -60 -29 -88 -41 -27
-12 -52 -26 -55 -30 -6 -8 -64 -37 -205 -104 -87 -41 -109 -48 -170 -49 -66
-2 -70 -1 -73 21 -2 12 4 37 13 55 26 52 75 177 75 192 0 8 19 56 41 107 23
51 45 109 50 128 4 19 25 74 46 123 l38 87 468 0 c496 0 488 -1 537 49 14 14
77 73 140 130 193 176 850 840 850 859 0 2 20 23 45 48 25 24 45 48 45 53 0 6
20 27 45 48 25 20 45 41 45 46 0 5 41 53 90 107 50 54 90 102 90 108 0 6 7 15
15 19 8 5 64 68 124 141 l110 133 -16 37 c-8 20 -24 54 -34 74 -11 21 -19 44
-19 53 0 8 -20 58 -45 111 -25 52 -45 100 -45 105 0 6 -20 53 -45 106 -25 52
-45 101 -45 109 0 7 -20 55 -45 106 -25 51 -45 99 -45 106 0 8 -15 46 -34 85
-18 40 -43 100 -55 133 -12 34 -37 94 -56 133 -19 39 -35 77 -35 85 0 7 -18
50 -40 94 -22 45 -43 94 -46 109 -4 16 -26 69 -49 118 -23 50 -45 103 -49 119
-4 16 -25 65 -47 108 -21 44 -39 86 -39 94 0 8 -4 22 -9 32 -21 38 -74 160
-88 201 -8 25 -30 76 -49 114 -19 39 -34 76 -34 83 0 7 -21 59 -46 116 -25 56
-52 117 -60 135 l-13 32 -415 0 c-316 1 -416 -2 -424 -12z"/>
<path d="M6847 9073 c-10 -9 -9 -1943 1 -1943 4 0 26 29 50 64 23 35 53 75 67
90 13 14 26 33 29 43 3 10 24 38 46 63 22 25 40 50 40 57 0 7 12 25 28 41 30
32 129 171 151 211 7 14 24 37 36 51 12 14 46 61 76 105 29 44 59 86 66 93 7
7 13 19 13 25 0 7 10 23 21 37 29 36 152 222 161 243 4 10 21 34 37 55 16 20
41 60 56 87 15 28 40 67 56 87 16 20 29 42 29 49 0 6 15 32 34 58 75 102 77
112 74 309 l-3 177 -531 3 c-292 1 -534 -1 -537 -5z"/>
<path d="M4774 6606 c-10 -8 -16 -17 -13 -20 3 -3 14 3 24 14 21 23 17 26 -11
6z"/>
<path d="M2071 4198 c-14 -23 -14 -23 8 -4 22 20 25 26 13 26 -4 0 -13 -10
-21 -22z"/>
</g>
</svg>
